<?xml version="1.0" encoding="UTF-8" standalone="no"?>
<!-- Created with Inkscape (http://www.inkscape.org/) -->

<svg
   xmlns:dc="http://purl.org/dc/elements/1.1/"
   xmlns:cc="http://creativecommons.org/ns#"
   xmlns:rdf="http://www.w3.org/1999/02/22-rdf-syntax-ns#"
   xmlns:svg="http://www.w3.org/2000/svg"
   xmlns="http://www.w3.org/2000/svg"
   xmlns:sodipodi="http://sodipodi.sourceforge.net/DTD/sodipodi-0.dtd"
   xmlns:inkscape="http://www.inkscape.org/namespaces/inkscape"
   width="744.09448819"
   height="1052.3622047"
   id="svg5781"
   version="1.1"
   inkscape:version="0.48.4 r9939"
   sodipodi:docname="map.svg">
  <defs
     id="defs5783">
    <filter
       inkscape:collect="always"
       id="filter6400">
      <feGaussianBlur
         inkscape:collect="always"
         stdDeviation="0.45606126"
         id="feGaussianBlur6402" />
    </filter>
  </defs>
  <sodipodi:namedview
     id="base"
     pagecolor="#ffffff"
     bordercolor="#666666"
     borderopacity="1.0"
     inkscape:pageopacity="0.0"
     inkscape:pageshadow="2"
     inkscape:zoom="1.4"
     inkscape:cx="205.96041"
     inkscape:cy="736.85823"
     inkscape:document-units="px"
     inkscape:current-layer="layer1"
     showgrid="false"
     inkscape:window-width="1920"
     inkscape:window-height="1056"
     inkscape:window-x="0"
     inkscape:window-y="24"
     inkscape:window-maximized="1" />
  <metadata
     id="metadata5786">
    <rdf:RDF>
      <cc:Work
         rdf:about="">
        <dc:format>image/svg+xml</dc:format>
        <dc:type
           rdf:resource="http://purl.org/dc/dcmitype/StillImage" />
        <dc:title></dc:title>
      </cc:Work>
    </rdf:RDF>
  </metadata>
  <g
     inkscape:label="Layer 1"
     inkscape:groupmode="layer"
     id="layer1">
    <rect
       style="fill:#00b2c6;fill-opacity:1;stroke:#ffffff;stroke-width:3.36447239;stroke-miterlimit:4;stroke-opacity:1;stroke-dasharray:none"
       id="rect4974"
       width="181.0641"
       height="95.349815"
       x="481.94519"
       y="214.39767"
       rx="8.2034035"
       ry="7.3377042"
       inkscape:export-filename="/home/yury/work/projects/scalaorgua/presentations/reactive-programming-intro/assets/map.png"
       inkscape:export-xdpi="120"
       inkscape:export-ydpi="120" />
    <text
       xml:space="preserve"
       style="font-size:40px;font-style:normal;font-weight:normal;line-height:125%;letter-spacing:0px;word-spacing:0px;fill:#ffffff;fill-opacity:1;stroke:none;font-family:Sans"
       x="512.04871"
       y="199.92972"
       id="text5603"
       sodipodi:linespacing="125%"
       inkscape:export-filename="/home/yury/work/projects/scalaorgua/presentations/reactive-programming-intro/assets/map.png"
       inkscape:export-xdpi="120"
       inkscape:export-ydpi="120"><tspan
         sodipodi:role="line"
         id="tspan5605"
         x="512.04871"
         y="199.92972"
         style="font-size:24px;font-weight:bold;fill:#ffffff;fill-opacity:1;-inkscape-font-specification:Sans Bold">Future[B]</tspan></text>
    <rect
       style="fill:#00b2c6;fill-opacity:1;stroke:#ffffff;stroke-width:3.36447239;stroke-miterlimit:4;stroke-opacity:1;stroke-dasharray:none"
       id="rect4974-2"
       width="181.0641"
       height="95.349815"
       x="80.699677"
       y="223.47911"
       rx="8.2034035"
       ry="7.3377042"
       inkscape:export-filename="/home/yury/work/projects/scalaorgua/presentations/reactive-programming-intro/assets/map.png"
       inkscape:export-xdpi="120"
       inkscape:export-ydpi="120" />
    <text
       xml:space="preserve"
       style="font-size:40px;font-style:normal;font-weight:normal;line-height:125%;letter-spacing:0px;word-spacing:0px;fill:#ffffff;fill-opacity:1;stroke:none;font-family:Sans"
       x="107.946"
       y="211.86833"
       id="text5603-3"
       sodipodi:linespacing="125%"
       inkscape:export-filename="/home/yury/work/projects/scalaorgua/presentations/reactive-programming-intro/assets/map.png"
       inkscape:export-xdpi="120"
       inkscape:export-ydpi="120"><tspan
         sodipodi:role="line"
         id="tspan5605-2"
         x="107.946"
         y="211.86833"
         style="font-size:24px;font-weight:bold;fill:#ffffff;fill-opacity:1;-inkscape-font-specification:Sans Bold">Future[A]</tspan></text>
    <path
       style="fill:none;stroke:#000000;stroke-width:6.32764244;stroke-linecap:round;stroke-linejoin:miter;stroke-miterlimit:4;stroke-opacity:1;stroke-dasharray:none"
       d="m 275.92105,266.69127 c 178.66255,11.35401 195.68333,0.67247 195.68333,0.67247"
       id="path4138-1"
       inkscape:connector-curvature="0"
       sodipodi:nodetypes="cc"
       inkscape:export-filename="/home/yury/work/projects/scalaorgua/presentations/reactive-programming-intro/assets/map.png"
       inkscape:export-xdpi="120"
       inkscape:export-ydpi="120" />
    <path
       style="fill:none;stroke:#000000;stroke-width:6.32764244;stroke-linecap:round;stroke-linejoin:miter;stroke-miterlimit:4;stroke-opacity:1;stroke-dasharray:none"
       d="m 455.42932,283.29344 c 17.54335,-14.20197 15.35093,-15.85057 15.35093,-15.85057 l -26.26578,-9.12866"
       id="path4602-17"
       inkscape:connector-curvature="0"
       inkscape:export-filename="/home/yury/work/projects/scalaorgua/presentations/reactive-programming-intro/assets/map.png"
       inkscape:export-xdpi="120"
       inkscape:export-ydpi="120" />
    <path
       style="fill:none;stroke:#ffffff;stroke-width:5.06211376;stroke-linecap:round;stroke-linejoin:miter;stroke-miterlimit:4;stroke-opacity:1;stroke-dasharray:none"
       d="m 275.48559,266.88844 c 178.66255,11.35401 195.68333,0.67247 195.68333,0.67247"
       id="path4138-3-3"
       inkscape:connector-curvature="0"
       sodipodi:nodetypes="cc"
       inkscape:export-filename="/home/yury/work/projects/scalaorgua/presentations/reactive-programming-intro/assets/map.png"
       inkscape:export-xdpi="120"
       inkscape:export-ydpi="120" />
    <path
       style="fill:none;stroke:#ffffff;stroke-width:5.06211376;stroke-linecap:round;stroke-linejoin:miter;stroke-miterlimit:4;stroke-opacity:1;stroke-dasharray:none"
       d="m 455.35973,283.28941 c 17.54334,-14.20197 15.35093,-15.85058 15.35093,-15.85058 l -26.26578,-9.12866"
       id="path4602-1-5"
       inkscape:connector-curvature="0"
       inkscape:export-filename="/home/yury/work/projects/scalaorgua/presentations/reactive-programming-intro/assets/map.png"
       inkscape:export-xdpi="120"
       inkscape:export-ydpi="120" />
    <path
       style="fill:#fff422;fill-opacity:1;stroke:none;filter:url(#filter6400)"
       id="path6362"
       d="m 120.58715,250.0443 c 0.3066,-0.34784 0.55847,-0.75293 0.91979,-1.04352 1.95546,-1.57266 4.77525,-2.54244 7.13764,-3.2249 0.85565,-0.24718 2.49249,-0.42343 3.39482,-0.53822 2.47946,-1.31911 0.10177,1.03152 0.27586,0.80684 1.66906,-2.15406 3.89777,-3.93279 5.96841,-5.67838 1.25442,-0.92927 2.48325,-1.94029 3.89816,-2.63216 0.3324,-0.16254 0.73972,-0.13579 1.06554,-0.31115 2.57009,-1.38326 4.62003,-3.32135 7.66805,-3.7153 3.00857,-0.38886 6.06549,-0.14406 9.09824,-0.2161 -2.26725,0.0393 -4.5402,-0.0474 -6.80175,0.11799 -0.30189,0.0221 -1.0961,0.40046 -0.79569,0.4376 0.33981,0.042 0.62162,-0.28761 0.93735,-0.42009 0.57423,-0.24094 1.14266,-0.4991 1.7321,-0.69999 1.55356,-0.52947 2.23782,-0.60314 3.84364,-0.91156 0.88927,0.11087 1.71803,-0.4154 2.59133,-0.39204 0.52099,0.0139 -0.32287,0.62841 0.34907,0.53633 10.67414,-1.46267 -7.62926,-16.98263 14.43601,21.29916 -2.62955,2.08535 -5.49941,3.78252 -8.5302,5.20024 -1.26268,0.4443 -0.57438,0.41354 -0.36098,-0.73451 0.0116,-0.0622 -0.15014,-0.0821 -0.18726,-0.0309 -0.29563,0.40796 -0.84697,1.73038 -1.07402,2.1628 -0.40877,0.77852 -0.84997,1.53958 -1.27496,2.30937 -1.13745,1.66287 -2.41291,3.10657 -3.98906,4.32379 -0.43509,0.33602 -0.83585,0.71562 -1.27694,1.04373 -0.0579,0.0431 -0.27662,0.0828 -0.20787,0.0608 0.0719,-0.023 0.14486,-0.0425 0.21729,-0.0638 0.03,-0.0293 0.11022,-0.12485 0.0901,-0.088 -1.06855,1.95608 -1.99173,4.02495 -3.31093,5.83167 -1.04492,0.45636 1.03021,-0.50702 -0.69783,0.69804 -0.22244,0.15512 0.006,-2.49264 0.0143,-2.36664 0.0669,1.04054 0.0195,2.08529 0.0292,3.12794 -0.23789,4.96919 -2.89494,8.77672 -6.05205,12.34723 -0.55548,0.50854 -1.97558,1.89247 -2.75926,2.35444 -0.0752,0.0444 0.0242,-0.17899 0.0725,-0.2518 0.34398,-0.47188 0.68797,-0.94376 1.03195,-1.41564 -0.0525,0.0138 -0.17434,0.093 -0.15757,0.0414 0.3127,-0.96328 0.71171,-1.89638 1.06756,-2.84457 -0.99858,-5.81091 0.01,-12.44763 -6.89562,-15.0164 -2.49141,-0.92677 -5.31621,-0.21041 -7.97342,-0.13768 -0.29243,0.008 -0.55808,0.20222 -0.79221,0.37761 -0.50825,0.38072 0.66734,-0.23019 1.1525,-0.4738 2.40495,-1.44804 4.64918,-3.14982 7.14362,-4.45401 1.24313,-0.64995 2.5304,-1.21261 3.77739,-1.85512 2.57974,-1.25989 5.75172,-2.97083 8.62649,-3.38972 0.25661,-0.0374 0.63335,-0.16832 0.77647,0.0479 0.13419,0.20275 -0.20452,0.44117 -0.30677,0.66175 -0.34676,0.39025 -0.97119,1.68818 -1.04027,1.17073 -0.074,-0.55417 0.65062,-0.91162 1.01867,-1.33246 1.91509,-2.18981 3.98289,-4.16426 6.5473,-5.55452 1.91807,-0.89068 3.78139,-1.95069 5.76119,-2.70462 1.26724,-0.48259 2.49905,-1.24803 3.85399,-1.30229 15.1921,-0.60838 6.22296,1.65267 10.21233,0.61865 -8.86616,-0.11277 -12.24416,1.23202 -7.07823,-1.45672 1.06078,-0.52 1.92817,-1.35703 2.96435,-1.91333 0.15385,-0.0826 0.37169,-0.139 0.52154,-0.0494 6.96569,4.16711 14.70076,7.33877 20.73616,12.76644 0.85318,0.76727 -2.92281,7.68325 -3.26538,8.36036 -3.41602,4.92388 -8.56911,7.88392 -13.46773,11.07921 -1.65546,1.1167 -2.19129,3.08112 -3.01758,4.79836 -0.2742,0.56986 -0.58415,1.12181 -0.87623,1.68271 -1.16433,1.7217 -2.67076,4.50084 -4.21945,5.8282 -0.0696,0.0596 -0.1114,-0.17806 -0.0784,-0.26355 0.19241,-0.49766 0.48723,-0.9494 0.73084,-1.4241 0.3449,0.70634 0.1402,0.15368 -0.33063,1.7483 -0.6713,2.27359 -1.94071,4.27242 -3.45637,6.06782 -0.11679,0.0709 -0.29356,0.33683 -0.35038,0.21259 -0.0922,-0.20166 0.096,-0.43308 0.15135,-0.6478 0.13626,-0.52821 0.33408,-1.04263 0.42354,-1.58075 0.0105,-0.0635 -0.15785,0.14466 -0.17447,0.0825 -0.13981,-0.52273 0.0316,-1.08176 0.051,-1.62252 -0.9033,3.80693 -0.67078,5.54085 -2.8385,8.26285 -0.73212,0.91932 -1.66553,1.65993 -2.45456,2.5309 -0.40176,0.44349 0.84362,-0.88881 1.38669,-1.14016 2.96117,-6.92697 -0.40859,-13.32072 -6.92211,-17.38443 -2.29171,-1.42977 -5.47332,0.45246 -8.10165,-0.17052 -0.78335,-0.18568 1.34516,-0.89029 2.05947,-1.26163 0.89251,-0.46398 1.83431,-0.82626 2.75147,-1.23939 3.96969,-1.95708 8.33481,-2.36858 12.62237,-3.07782 5.67505,-0.93876 -0.49861,-0.074 4.16056,-0.69976 2.54728,-0.43863 1.12349,-0.36308 2.87016,-0.24634 0.28842,0.0193 0.74543,-0.22616 0.86644,0.0364 0.0649,0.14087 -1.0122,1.22673 -1.08339,1.30243 -0.11717,0.1246 0.23591,-0.2477 0.35387,-0.37155 2.41822,-2.47397 5.52546,-3.67987 8.6826,-4.87398 1.46456,-0.41659 -0.40518,0.87923 -0.53064,1.0035 -0.16917,0.16759 -0.60411,0.73233 -0.48001,0.5291 0.16534,-0.27078 0.39031,-0.50123 0.60541,-0.73445 0.73873,-0.80096 1.5032,-1.57779 2.25479,-2.36669 1.93469,-1.35725 2.77916,-2.06045 4.90551,-3.11097 0.63071,-0.3116 1.28109,-0.60092 1.96213,-0.77724 0.14776,-0.0383 0.44249,0.006 0.42979,0.15799 -0.0294,0.35184 -0.36953,0.60336 -0.51999,0.92276 -0.13773,0.2924 -0.22805,0.60487 -0.34207,0.90731 -0.1804,0.42167 -0.41717,0.82347 -0.5412,1.26503 -0.018,0.0642 0.15839,0.0688 0.14802,0.13465 -0.0864,0.54927 -0.73962,1.1564 -0.42309,1.61354 0.29312,0.42332 0.26923,-1.00871 0.53764,-1.44811 3.11541,-5.10018 2.06961,-4.10586 4.57413,-6.11089 0.69214,-0.44098 1.35422,-0.93312 2.07642,-1.32293 8.42157,-4.54553 12.68523,6.17067 18.49914,15.23322 0.94797,1.47766 -1.87741,3.00295 -2.44838,4.66311 -0.8781,1.48314 -1.14741,1.84599 -2.4585,3.26942 -0.12134,0.13174 -0.3328,0.16773 -0.43587,0.31421 -0.47905,0.68081 -0.94109,1.37342 -1.41163,2.06013 -1.91145,2.49354 -4.00143,4.8841 -6.31097,7.02094 -0.70107,0.64864 -1.92405,1.47503 -2.66988,2.00544 -2.1293,1.3281 0.95947,-2.83104 -0.61142,-2.17822 -0.53892,1.65376 -23.9266,-5.96767 -23.38769,-7.62143 l 0,0 c -0.64026,-0.82921 -0.38124,-0.3659 0.38872,-2.52166 0.79321,-2.22084 1.27846,-2.86146 2.39793,-4.74037 1.12677,-1.42066 1.81621,-2.3998 3.27651,-3.64152 0.48499,-0.4124 1.08839,-0.66187 1.61425,-1.0207 1.15829,-0.79038 2.21732,-1.77777 3.55093,-2.28092 1.1882,0.0179 0.21902,0.1096 1.72401,-1.95153 0.375,-0.51357 0.74105,-1.03912 1.18144,-1.49784 0.0448,-0.0467 0.11642,0.1152 0.17412,0.0859 0.78827,-0.40059 1.60185,-1.77829 1.95212,-2.23993 3.21403,-2.92709 -1.25353,0.83074 -0.15899,2.24699 12.61628,16.32452 10.75117,19.79761 18.40141,13.53075 1.719,-1.88717 0.92168,-0.9532 3.61229,-5.53359 0.15383,-0.26189 0.36731,-1.15621 0.30276,-0.85942 -0.49697,2.28489 -1.12684,4.20742 -2.33087,6.23582 -0.54857,0.79637 -1.01846,1.65312 -1.64572,2.38911 -1.57628,1.84948 -5.26685,5.79583 -8.1246,4.36981 -0.0445,-0.26457 0.13264,-0.75959 -0.13346,-0.79369 -0.36572,-0.0469 -0.61113,0.41663 -0.88535,0.66311 -0.6,0.53931 -1.12211,1.1625 -1.73253,1.68999 -1.44045,1.24474 -3.02992,2.3357 -4.79802,3.05663 -0.046,-0.47498 -0.7009,0.24851 -1.64928,0.56548 -0.13815,0.0462 -0.29356,-0.029 -0.43697,-0.003 -0.98922,0.17586 -0.90824,0.58087 -0.57786,-0.4603 -2.68338,1.71504 -4.79689,4.30221 -7.84581,5.4565 -4.05538,1.9019 -0.15607,0.13681 -4.35192,1.84654 -3.92827,1.60069 -7.8068,3.28877 -12.0768,3.79286 -5.00715,0.79661 -1.76208,0.41234 -6.42046,0.67994 -3.79993,0.21828 -7.90766,2.21124 -11.39757,0.69216 -9.99785,-4.35183 -10.39797,-9.52385 -9.28393,-17.73876 0.12685,-0.93537 0.81006,-1.70524 1.21509,-2.55787 0.3172,-0.38888 4.29862,-5.16164 4.70902,-4.89204 0.69807,0.45858 -1.08407,1.2773 -1.53577,1.97984 -1.3796,2.14571 -1.33067,4.3116 -1.83688,6.92293 0.007,-1.16695 -0.0577,-3.26829 0.18668,-4.41606 0.51871,-2.43634 1.29061,-4.75001 2.68113,-6.83221 0.23105,-0.29489 0.40793,-0.64178 0.69315,-0.88467 0.4675,-0.39814 0.18778,0.67979 0.42873,0.46089 0.31775,-0.28868 0.35882,-0.79252 0.63751,-1.11908 0.0658,-0.0771 0.20246,0.0108 0.30369,0.0162 0.18546,-0.27649 0.37092,-0.55297 0.55637,-0.82945 0.32747,-0.65683 0.68208,-1.30081 0.98241,-1.97048 0.80502,-1.79504 -0.75793,0.39395 -0.77678,0.29979 -0.0643,-0.32119 0.52338,-2.38182 0.6027,-2.6787 1.88505,-5.60876 4.71724,-10.87872 8.67695,-15.30724 1.79708,-1.95425 3.61918,-3.82453 5.6483,-5.54178 1.0102,-0.85492 2.79109,-2.37581 4.03071,-3.06892 0.52319,-0.29254 1.10614,-0.46226 1.65921,-0.69339 4.46246,-0.31767 -1.82633,-0.35877 1.78957,1.90143 6.7835,4.24017 14.07961,7.59895 21.11941,11.39843 -0.12612,0.18595 -0.36054,0.33387 -0.37838,0.55785 -0.0114,0.14374 0.23586,-0.16596 0.35379,-0.24894 -0.1956,0.25415 -0.39121,0.50831 -0.58681,0.76246 -2.46844,2.67651 -5.13422,4.89267 -8.47633,6.44273 -0.91165,0.42282 -1.82183,0.96622 -2.82239,1.05972 -3.81158,0.35617 -7.65413,0.18458 -11.4812,0.27687 -4.35618,-1.5022 0.82892,0.42414 6.74655,-0.0417 4.20327,-0.33091 1.12252,-1.13364 3.19585,-1.72894 0.6185,-0.17758 -4.17864,3.06364 -1.40984,1.31873 -0.61257,0.46594 -1.18117,0.99619 -1.83769,1.39783 -0.095,0.0581 -2.86164,1.27229 -3.07358,1.27527 -0.29915,0.004 -0.10703,-1.08833 -0.74076,-0.5173 -0.76908,0.69299 -1.40357,1.52212 -2.10535,2.28318 -2.67437,2.56806 -5.52927,4.89767 -8.96418,6.4 -2.57742,1.38143 -2.9235,1.70976 -5.4484,2.61058 -0.75009,0.26762 -1.50685,0.52656 -2.28353,0.70273 -0.44777,0.10156 -0.92424,0.0231 -1.37164,0.12635 -1.11872,0.25807 -2.04322,0.86649 -3.03632,1.40799 -5.33274,2.84897 -10.25256,5.21129 -16.88067,3.34368 -2.64315,-0.74477 -5.28671,-2.49013 -6.6359,-4.88191 -1.78832,-3.17023 -1.43756,-7.13634 -2.15634,-10.7045 1.28817,-3.52231 1.33873,-4.15111 3.71857,-6.89902 0.37352,-0.43129 0.80468,-0.8133 1.25351,-1.16554 0.053,-0.0416 0.21174,-0.0422 0.20067,0.0243 -0.0319,0.19187 -0.19271,0.33793 -0.28907,0.50689 -0.13827,0.2335 -0.27902,0.46554 -0.41482,0.70048 -0.0725,0.12549 -0.27351,0.51105 -0.2101,0.38071 0.13753,-0.2827 0.25533,-0.57844 0.4326,-0.83806 0.0532,-0.078 0.21729,-0.23998 0.2411,-0.14862 0.24883,0.9546 -0.31018,1.50737 0.26605,0.79631 0.0956,0.41669 0.18825,1.6661 0.28669,1.25008 0.19132,-0.80854 -0.0261,-1.66238 0.007,-2.49257 0.10388,-2.58289 0.57396,-5.1302 1.39189,-7.58109 1.02663,-2.41277 2.28039,-4.53208 3.84703,-6.63996 0.2018,-0.27151 0.46541,-0.49438 0.65907,-0.77176 0.49643,-0.71104 0.93825,-1.45868 1.40737,-2.18801 0.91632,-1.01118 1.92435,-2.05716 2.8157,-3.10392 0.30304,-0.35586 0.57372,-0.74192 0.9085,-1.06811 0.12294,-0.11979 0.3656,-0.40421 0.44811,-0.25369 0.11131,0.20303 -0.15159,0.43755 -0.22738,0.65633 0.0721,0.0298 0.16761,0.15027 0.21614,0.0893 0.13834,-0.17387 1.11416,-2.06105 1.22282,-2.29862 1.24825,-2.72916 2.44085,-5.52152 4.62874,-7.66961 2.28931,-2.17514 4.40006,-3.98184 7.27253,-5.38669 0.44951,-0.21985 3.42368,-1.58005 4.40296,-1.36937 0.22755,0.049 0.0514,0.46267 0.0772,0.69401 4.7466,6.93044 9.2535,14.03129 14.23981,20.79132 0.18221,0.24703 1.09439,-0.51697 0.86674,-0.31106 -0.37968,0.34343 -0.8846,0.51743 -1.34422,0.74294 -0.62127,0.30483 -1.23944,0.62674 -1.8956,0.84666 -0.76666,0.25695 -1.67097,-0.0798 -2.37978,0.46985 -0.94726,0.10016 -1.94634,0.13281 -2.88145,0.29121 -4.96196,0.84052 -7.19383,3.70191 -13.37551,1.72587 2.31671,-0.0996 4.66563,0.0987 6.95014,-0.29886 0.74081,-0.12894 1.28526,-0.78556 1.88518,-1.23891 0.51022,-0.38556 1.5081,-1.90694 1.43676,-1.27142 -0.13721,1.22231 -3.87813,3.66865 -4.82427,4.38569 -0.67637,0.45523 -1.33404,0.93955 -2.02909,1.3657 -1.56253,0.95803 -3.34347,1.67364 -4.79208,2.81834 -0.97897,0.77359 -1.8504,1.67517 -2.80589,2.47757 -0.4827,0.40536 -1.00405,0.76235 -1.50607,1.14352 -1.64302,1.15433 -2.26594,1.69487 -4.24233,2.55745 -0.65244,0.28475 -1.35723,0.43014 -2.03769,0.63925 -2.6865,0.82556 -5.36492,1.83052 -8.22157,1.76808 -1.60626,0.84667 -13.58003,-21.86924 -11.97377,-22.71591 z"
       inkscape:connector-curvature="0"
       inkscape:export-filename="/home/yury/work/projects/scalaorgua/presentations/reactive-programming-intro/assets/map.png"
       inkscape:export-xdpi="120"
       inkscape:export-ydpi="120" />
    <path
       style="fill:#fff422;fill-opacity:1;stroke:none"
       id="path6404"
       d="m 522.42888,237.13656 c 0.40406,-0.25092 0.77563,-0.56392 1.21216,-0.75275 0.74967,-0.32426 1.54308,-0.53733 2.32398,-0.77681 3.96566,-1.21616 7.9285,-1.77309 12.03884,-2.21795 1.29384,0.23296 4.43865,-1.08441 5.50776,0.30762 0.58681,0.76404 -1.93258,3.05921 -2.10025,3.24441 0.91324,-0.85105 1.72864,-1.82102 2.73972,-2.55316 2.65068,-1.91939 6.7871,-3.49041 10.03633,-4.15714 0.98292,-0.2017 1.9837,-0.30364 2.97555,-0.45546 2.15858,-0.33917 4.12004,-0.0564 6.18088,0.48476 0.32923,0.0865 0.93736,-0.0918 0.99156,0.24421 0.0657,0.40745 -0.56135,0.60831 -0.79973,0.94522 -0.077,0.10886 -0.0903,0.25096 -0.13543,0.37644 1.77006,-0.68741 3.33517,-2.23663 5.31179,-2.40315 3.39207,-0.28575 17.61028,0.594 2.30916,-0.43084 2.84067,-1.05519 5.84457,-1.79206 8.87762,-1.9847 1.7093,-0.10857 2.97675,0.0886 4.65066,0.26338 10.58026,2.19358 7.42348,10.29822 11.34345,24.88764 0.10601,0.39455 -0.77666,0.25386 -1.16498,0.3808 -2.11958,0.43868 -4.12993,1.2741 -6.22341,1.80633 -0.53989,0.13725 -3.87002,0.75776 -4.46591,0.87031 -1.604,0.3527 -3.19439,0.54507 -4.81033,0.22537 -0.23714,-0.0469 -0.63434,0.0637 -0.70566,-0.16729 -0.0324,-0.10473 0.70498,-1.2349 0.79267,-1.37321 0.11902,-0.18934 0.50403,-0.73662 0.35706,-0.56804 -0.17196,0.19724 -2.09763,2.68214 -2.48837,3.06973 -1.80682,1.7923 -3.65885,2.93974 -5.88151,4.11463 -1.49666,0.61443 -3.27677,1.43219 -4.87952,1.72086 -0.10477,0.0189 0.0823,-0.22335 0.0329,-0.31768 -0.0457,-0.0872 -0.34041,-0.0634 -0.26618,-0.12804 3.62183,-3.15605 3.46963,-3.17101 2.54377,-1.37751 -2.2792,3.20112 -5.36633,5.88497 -8.82852,7.7585 -0.82141,0.44449 -1.69613,0.78248 -2.54419,1.17372 -2.29843,0.69876 -2.08827,0.95627 -0.95603,-0.32865 0.75215,-0.8536 1.53633,-1.68214 2.22954,-2.58426 0.39143,-0.5094 0.68778,-1.08549 1.01512,-1.63826 0.24915,-0.42074 0.2579,-1.10495 0.7139,-1.2815 0.31326,-0.12127 -0.005,0.67182 -0.007,1.00772 -0.23037,3.88565 -0.81785,7.95532 -2.8882,11.34133 -0.4989,0.81593 -1.13349,1.54071 -1.70023,2.31106 -2.24597,2.24818 -5.30877,6.20538 -9.07488,6.17258 -3.96194,-0.0345 -7.71214,-1.83869 -11.6115,-2.54092 -0.18488,-0.0333 0.11621,0.38249 0.26475,0.49748 0.59003,0.45677 1.15605,1.18234 1.90222,1.18006 3.842,-0.0117 7.6408,-0.81386 11.46121,-1.22079 1.45119,-0.9462 -0.87589,1.02877 -1.09521,0.66274 -0.33819,-0.56442 1.45354,-1.00688 1.16115,-1.59632 -3.49779,-7.05127 -8.30053,-13.38767 -12.03185,-20.3182 -0.16172,-0.30037 0.4133,-0.55282 0.68183,-0.76323 0.66879,-0.52404 1.40835,-0.95087 2.11252,-1.4263 11.4589,-6.20165 24.43655,-9.25882 37.37131,-10.26906 2.77414,-0.21667 5.56127,-0.20813 8.34191,-0.3122 3.67814,0.28023 7.54628,0.30744 11.12933,1.40675 0.78353,0.24039 1.80641,0.41788 2.17265,1.15107 0.29233,0.58522 -0.55813,1.19864 -0.67765,1.84179 -3.59829,19.36271 1.13437,14.01276 -3.55082,19.14677 -0.67306,-0.65538 -1.41658,-1.24543 -2.01917,-1.96613 -4.39509,-5.25653 -4.42604,-11.339 -1.3863,-17.63775 1.68441,-3.49031 5.28898,-5.36614 8.35098,-7.29017 3.63962,-1.79291 7.46247,-2.84635 11.492,-3.19888 2.47442,-0.21647 4.45258,-0.16946 6.80322,0.49105 1.94513,1.2555 0.14258,-0.22551 -2.21202,2.96661 -1.37075,1.85832 -1.8387,4.33292 -3.3957,6.03822 -0.78402,0.8587 0.4275,-2.31722 0.94776,-3.35712 1.91217,-3.82205 2.65815,-4.13856 5.39141,-6.62821 1.83524,-1.12597 2.92373,-2.00043 4.92684,-2.59626 0.28841,-0.0858 2.40734,-0.52914 2.82674,0.0392 4.89643,6.63484 10.07445,13.13914 14.03108,20.37387 0.43068,0.7875 -1.19147,1.34274 -1.78721,2.01411 -1.84707,1.65896 -4.06882,2.5973 -6.39874,3.35452 -1.27804,0.41537 -2.55634,0.55652 -3.686,1.28512 -2.96821,1.81481 -4.36828,4.88307 -6.13468,7.72567 -0.63984,1.02966 -1.32368,2.03132 -1.98551,3.04698 -2.19624,3.22588 -4.80848,6.18986 -7.84456,8.65515 -7.2075,5.85244 0.15962,-0.22472 -3.9964,2.56371 -0.64661,0.43383 -1.2183,0.97005 -1.82745,1.45508 -1.9549,1.72019 -3.60139,3.6837 -5.71477,5.25183 -2.0414,1.51472 -2.77324,1.75887 -4.84905,2.7338 -2.16486,0.73922 -4.34509,1.69392 -6.60649,2.11916 -0.33479,0.063 -1.23724,0.22776 -1.02135,-0.0358 1.28635,-1.57013 5.5369,-2.43691 4.4532,-4.15318 -4.37803,-6.93351 -11.86565,-11.3212 -17.79847,-16.9818 0.80304,-0.62506 1.55563,-1.32099 2.40912,-1.87518 1.13386,-0.73624 4.26027,-2.00527 5.29482,-2.42496 3.01325,-1.2224 6.11012,-2.22814 9.19144,-3.26021 4.24258,-1.42653 8.59729,-2.46833 13.05775,-2.89288 2.70822,-0.25778 5.43357,-0.22583 8.1448,-0.49119 0.34603,0.008 0.70063,0.0998 1.0381,0.0229 0.9491,-0.21627 3.34201,-1.3041 4.19256,-1.60203 2.52033,-0.8828 4.97901,-1.29992 7.62558,-1.52714 19.40412,0.0629 6.42429,-0.0711 3.24964,0.1858 -0.23312,0.0189 0.42326,0.22691 0.65614,0.24865 2.86524,0.26745 5.74071,0.41092 8.61107,0.61637 1.66822,0.6237 -7.15223,24.21585 -8.82045,23.59215 l 0,0 c 2.48766,0.15669 4.99013,0.15699 7.46298,0.47008 0.407,0.0515 -0.77755,0.30202 -1.18718,0.32451 -2.67606,0.14688 -5.36658,-0.0309 -8.03821,0.18187 -2.00751,0.15991 4.02771,-0.0152 6.04157,-0.0228 -3.10829,-0.0652 -4.96423,-0.27565 -7.70315,1.72026 -2.54696,1.40129 -4.97505,3.0524 -7.66227,4.18948 -4.52213,1.91351 -9.3441,2.75332 -14.20507,3.22707 -5.31012,0.50039 -3.63295,0.48141 -8.41919,0.46715 -4.12836,-0.0123 -1.84605,0.54284 -3.79799,-0.71612 -0.19096,-0.12317 -0.54421,-0.071 -0.61899,-0.28561 -0.10978,-0.31501 0.11743,-0.65677 0.17614,-0.98516 -6.34499,-5.40554 -14.27052,-9.37713 -19.03499,-16.21663 -1.22298,-1.75562 3.15834,-2.88932 4.67259,-4.40093 0.0697,-0.0696 0.12052,-0.25419 0.0304,-0.29384 -0.13343,-0.0587 -0.4882,0.25127 -0.41981,0.12253 0.39664,-0.74669 1.83959,-0.64919 2.05975,-1.48028 1.51098,-0.85409 1.98567,-1.36444 3.58028,-1.57939 1.27699,-0.17213 0.94317,0.46542 2.1955,-0.48575 0.76179,-0.57859 1.36365,-1.34567 2.10254,-1.95324 0.55973,-0.46027 1.18929,-0.82837 1.78393,-1.24255 1.04596,-0.10874 0.89796,-0.64467 1.27065,-1.37385 0.94593,-1.8508 2.15565,-3.58854 3.08572,-5.44814 1.73894,-2.97312 2.91598,-5.17674 5.08114,-7.96814 2.94964,-3.80277 6.63015,-7.37575 10.73825,-9.91919 0.94116,-0.58271 1.99178,-0.96651 2.98767,-1.44976 3.41123,-1.60249 6.93576,-3.40181 10.79541,-3.40153 3.74223,8.48168 -0.15729,-0.18043 15.045,20.84775 0.78714,1.08879 -1.78104,1.51303 -2.26114,1.44032 -0.21649,-0.0328 -0.26992,-0.34485 -0.40489,-0.51727 -0.12708,-2.24331 -0.0996,0.4843 1.26266,-3.92641 0.21213,-0.68681 0.70799,-2.72565 0.297,-2.13591 -1.47212,2.11236 -2.07525,4.75497 -3.57884,6.84505 -1.10135,1.53095 -3.0549,2.26287 -4.26087,3.72235 -0.51031,0.33938 -0.99053,0.72906 -1.53092,1.01816 -1.89337,1.01294 -2.97647,1.32253 -5.08154,1.81657 -3.01156,0.70677 -5.98845,1.13002 -9.05255,0.43471 -0.49657,-0.20986 -1.52636,-0.0917 -1.48971,-0.62958 0.0925,-1.35717 1.47622,-2.34563 1.78274,-3.67096 1.23561,-5.3425 1.56524,-8.43398 -1.17738,-12.8493 0.53985,0.60065 1.63329,0.99446 1.61956,1.80195 -0.20319,11.9437 1.99318,16.05368 -4.03045,22.06269 -0.7356,0.73382 -1.50969,1.44436 -2.37709,2.01638 -3.18921,2.10321 -5.45561,2.63309 -9.16506,3.98549 -5.91639,1.40668 -9.68218,2.43494 -15.84562,3.29354 -10.6719,1.48666 -21.60938,1.76478 -32.3064,0.45471 -1.39538,-0.19114 -2.79703,-0.34107 -4.18614,-0.57343 -0.79222,-0.13252 -1.87862,0.12796 -2.35283,-0.52035 -16.97963,-23.21365 -17.51857,-13.82341 -11.35735,-22.19055 0.0793,-0.10763 -0.42545,0.32207 -0.31098,0.25307 0.67631,-0.40765 1.3329,-0.84716 1.99936,-1.27074 4.21817,-0.60073 8.39561,-1.67765 12.65452,-1.80218 1.10451,-0.0323 2.05263,0.82892 3.03045,1.34356 0.49698,0.26156 1.93203,1.04032 1.37427,0.97468 -3.6391,-0.42827 -7.1299,-2.15309 -10.79344,-2.08319 -3.07721,0.0587 -5.36588,3.50979 -7.03328,5.47076 -0.16563,0.17732 -0.25445,0.52203 -0.49688,0.53196 -0.95771,0.0392 0.36113,-0.57854 0.39244,-0.66033 0.57712,-1.50705 0.52408,-3.16467 1.2351,-4.62972 1.27655,-5.13594 2.59924,-8.51699 6.53228,-12.31288 1.58866,-1.53325 1.67431,-1.50112 2.95984,-1.88507 0.20966,1.34273 3.78609,-2.09449 3.93373,-2.20861 2.79682,-2.16091 5.26125,-4.97844 8.68925,-6.1396 0.21808,-0.0739 -0.85649,0.32909 -0.45915,0.51605 0.54931,-0.16307 1.04808,-0.5223 1.61816,-0.58011 0.16588,-0.0168 0.26491,0.26533 0.43122,0.25348 0.32798,-0.0234 0.59886,-0.40924 0.92227,-0.34992 0.17116,0.0314 -0.11685,0.63537 0.015,0.52181 0.55271,-0.47601 0.91002,-1.14024 1.36503,-1.71037 3.59625,-3.7326 6.88414,-6.41993 12.07383,-7.6549 1.85897,-0.44106 3.85444,-0.98764 5.76995,-1.16301 0.77656,-0.0711 1.56054,0.0284 2.3394,-0.0101 2.20221,-0.10882 4.39945,-0.44379 6.60101,-0.5717 9.3404,1.99791 0.95899,-0.1159 10.26695,23.78793 0.0263,0.0674 0.12619,0.14105 0.0842,0.19996 -0.77773,1.09192 -2.48832,1.4524 -3.5697,2.00526 -2.18527,0.59354 -3.31239,1.01323 -5.67324,1.12328 -3.30017,0.15383 -6.53021,-0.86545 -9.81205,-0.96915 -2.92778,-0.12701 -5.85763,-0.21271 -8.78332,-0.38102 -0.1399,-0.008 -0.53397,-0.14274 -0.39389,-0.14692 2.33442,-0.0696 4.68355,0.1942 7.00619,-0.0502 0.62845,-0.0661 2.489,-1.42926 3.02418,-1.78883 -3.5378,2.94078 -7.36592,5.35727 -12.05027,5.8811 -2.36611,0.16795 -7.48635,0.63564 -9.69674,-0.22374 -0.33402,-0.12986 -0.76191,-0.57465 -0.59812,-0.8934 0.8542,-1.66233 3.56637,-1.86238 4.01516,-3.91347 -3.45876,3.7267 -5.7652,6.27365 -10.89895,7.72283 -3.00479,0.81587 -3.9223,1.17318 -7.02681,1.57996 -3.83854,0.50296 -2.71594,0.2116 -6.2609,0.12073 -8.63475,-0.22134 3.49744,0.30288 -5.3265,-0.11282 -1.7318,0.62095 -10.51338,-23.87037 -8.78159,-24.49132 z"
       inkscape:connector-curvature="0"
       inkscape:export-filename="/home/yury/work/projects/scalaorgua/presentations/reactive-programming-intro/assets/map.png"
       inkscape:export-xdpi="120"
       inkscape:export-ydpi="120" />
    <text
       xml:space="preserve"
       style="font-size:40px;font-style:normal;font-weight:normal;line-height:125%;letter-spacing:0px;word-spacing:0px;fill:#494949;fill-opacity:1;stroke:none;font-family:Sans"
       x="159.43414"
       y="279.18307"
       id="text5603-3-7"
       sodipodi:linespacing="125%"
       inkscape:export-filename="/home/yury/work/projects/scalaorgua/presentations/reactive-programming-intro/assets/map.png"
       inkscape:export-xdpi="120"
       inkscape:export-ydpi="120"><tspan
         sodipodi:role="line"
         id="tspan5605-2-3"
         x="159.43414"
         y="279.18307"
         style="font-size:24px;font-weight:bold;fill:#494949;fill-opacity:1;-inkscape-font-specification:Sans Bold">a</tspan></text>
    <text
       xml:space="preserve"
       style="font-size:40px;font-style:normal;font-weight:normal;line-height:125%;letter-spacing:0px;word-spacing:0px;fill:#494949;fill-opacity:1;stroke:none;font-family:Sans"
       x="573.75867"
       y="268.91296"
       id="text5603-3-7-2"
       sodipodi:linespacing="125%"
       inkscape:export-filename="/home/yury/work/projects/scalaorgua/presentations/reactive-programming-intro/assets/map.png"
       inkscape:export-xdpi="120"
       inkscape:export-ydpi="120"><tspan
         sodipodi:role="line"
         id="tspan5605-2-3-6"
         x="573.75867"
         y="268.91296"
         style="font-size:24px;font-weight:bold;fill:#494949;fill-opacity:1;-inkscape-font-specification:Sans Bold">b</tspan></text>
    <text
       xml:space="preserve"
       style="font-size:40px;font-style:italic;font-weight:normal;line-height:125%;letter-spacing:0px;word-spacing:0px;fill:#ffea9b;fill-opacity:1;stroke:none;font-family:Sans;-inkscape-font-specification:Sans Italic"
       x="284.71988"
       y="244.18304"
       id="text5603-3-3"
       sodipodi:linespacing="125%"
       inkscape:export-filename="/home/yury/work/projects/scalaorgua/presentations/reactive-programming-intro/assets/map.png"
       inkscape:export-xdpi="120"
       inkscape:export-ydpi="120"><tspan
         sodipodi:role="line"
         id="tspan5605-2-0"
         x="284.71988"
         y="244.18304"
         style="font-size:24px;font-style:italic;font-weight:normal;fill:#ffea9b;fill-opacity:1;-inkscape-font-specification:Sans Italic">map(f : A=&gt;B)</tspan></text>
    <path
       style="fill:none;stroke:#000000;stroke-width:3;stroke-linecap:round;stroke-linejoin:miter;stroke-opacity:1;stroke-miterlimit:4;stroke-dasharray:none"
       d="m 169.89359,282.22041 c 83.57143,58.57143 314.28571,65.35714 412.14286,-8.92858"
       id="path6469"
       inkscape:connector-curvature="0"
       sodipodi:nodetypes="cc"
       inkscape:export-filename="/home/yury/work/projects/scalaorgua/presentations/reactive-programming-intro/assets/map.png"
       inkscape:export-xdpi="120"
       inkscape:export-ydpi="120" />
    <text
       xml:space="preserve"
       style="font-size:40px;font-style:italic;font-weight:normal;line-height:125%;letter-spacing:0px;word-spacing:0px;fill:#ffffff;fill-opacity:1;stroke:none;font-family:Sans;-inkscape-font-specification:Sans Italic"
       x="357.57645"
       y="314.91183"
       id="text5603-3-3-2"
       sodipodi:linespacing="125%"
       inkscape:export-filename="/home/yury/work/projects/scalaorgua/presentations/reactive-programming-intro/assets/map.png"
       inkscape:export-xdpi="120"
       inkscape:export-ydpi="120"><tspan
         sodipodi:role="line"
         id="tspan5605-2-0-1"
         x="357.57645"
         y="314.91183"
         style="font-size:24px;font-style:italic;font-weight:normal;fill:#ffffff;fill-opacity:1;-inkscape-font-specification:Sans Italic">f(a)</tspan></text>
    <g
       id="g6535"
       transform="matrix(0.48184663,-0.19327113,0.1769201,0.44108166,262.38184,208.88974)"
       inkscape:export-filename="/home/yury/work/projects/scalaorgua/presentations/reactive-programming-intro/assets/map.png"
       inkscape:export-xdpi="120"
       inkscape:export-ydpi="120">
      <path
         inkscape:connector-curvature="0"
         id="path4602-17-9"
         d="m 510.59527,389.8518 c 17.54335,-14.20197 15.35093,-15.85057 15.35093,-15.85057 l -26.26578,-9.12866"
         style="fill:none;stroke:#000000;stroke-width:6.32764244;stroke-linecap:round;stroke-linejoin:miter;stroke-miterlimit:4;stroke-opacity:1;stroke-dasharray:none" />
      <path
         inkscape:connector-curvature="0"
         id="path4602-1-5-4"
         d="m 510.52568,389.84777 c 17.54334,-14.20197 15.35093,-15.85058 15.35093,-15.85058 l -26.26578,-9.12866"
         style="fill:none;stroke:#ffffff;stroke-width:5.06211376;stroke-linecap:round;stroke-linejoin:miter;stroke-miterlimit:4;stroke-opacity:1;stroke-dasharray:none" />
    </g>
    <path
       style="fill:none;stroke:#ffffff;stroke-width:3;stroke-linecap:round;stroke-linejoin:miter;stroke-miterlimit:4;stroke-opacity:1;stroke-dasharray:none"
       d="m 169.28571,281.28913 c 83.57143,58.57143 314.28571,65.35714 412.14286,-8.92858"
       id="path6469-7"
       inkscape:connector-curvature="0"
       sodipodi:nodetypes="cc"
       inkscape:export-filename="/home/yury/work/projects/scalaorgua/presentations/reactive-programming-intro/assets/map.png"
       inkscape:export-xdpi="120"
       inkscape:export-ydpi="120" />
  </g>
</svg>
